<svg width="32" height="32" viewBox="0 0 32 32" fill="none" xmlns="http://www.w3.org/2000/svg">
<path fill-rule="evenodd" clip-rule="evenodd" d="M3.5 15.998C3.5 9.09449 9.09644 3.49805 16 3.49805C22.9036 3.49805 28.5 9.09449 28.5 15.998C28.5 22.9016 22.9036 28.498 16 28.498C9.09644 28.498 3.5 22.9016 3.5 15.998Z" fill="#D42D3D"/>
<path fill-rule="evenodd" clip-rule="evenodd" d="M16 8.99805C16.5523 8.99805 17 9.44576 17 9.99805V16.998C17 17.5503 16.5523 17.998 16 17.998C15.4477 17.998 15 17.5503 15 16.998V9.99805C15 9.44576 15.4477 8.99805 16 8.99805Z" fill="#FBFCFC"/>
<path d="M16.045 22.588C16.6221 22.588 17.09 22.1202 17.09 21.543C17.09 20.9659 16.6221 20.498 16.045 20.498C15.4679 20.498 15 20.9659 15 21.543C15 22.1202 15.4679 22.588 16.045 22.588Z" fill="#FBFCFC"/>
</svg>
