<svg width="10" height="12" viewBox="0 0 10 12" fill="none" xmlns="http://www.w3.org/2000/svg">
<path fill-rule="evenodd" clip-rule="evenodd" d="M9.10355 0.146447C9.29882 0.341709 9.29882 0.658291 9.10355 0.853553L3.95711 6L9.10355 11.1464C9.29882 11.3417 9.29882 11.6583 9.10355 11.8536C8.90829 12.0488 8.59171 12.0488 8.39645 11.8536L2.89645 6.35355C2.70118 6.15829 2.70118 5.84171 2.89645 5.64645L8.39645 0.146447C8.59171 -0.0488155 8.90829 -0.0488155 9.10355 0.146447Z" fill="#999999"/>
<path fill-rule="evenodd" clip-rule="evenodd" d="M0.5 7.45058e-09C0.776142 7.45058e-09 1 0.223858 1 0.5V11.5C1 11.7761 0.776142 12 0.5 12C0.223858 12 0 11.7761 0 11.5V0.5C0 0.223858 0.223858 7.45058e-09 0.5 7.45058e-09Z" fill="#999999"/>
</svg>
