<svg width="32" height="32" viewBox="0 0 32 32" fill="none" xmlns="http://www.w3.org/2000/svg">
<path fill-rule="evenodd" clip-rule="evenodd" d="M14.875 15.375C14.875 15.0989 15.0989 14.875 15.375 14.875C15.6734 14.875 15.9595 14.9935 16.1705 15.2045C16.3815 15.4155 16.5 15.7016 16.5 16V19.125C16.5 19.1582 16.5132 19.1899 16.5366 19.2134C16.5601 19.2368 16.5918 19.25 16.625 19.25C16.9011 19.25 17.125 19.4739 17.125 19.75C17.125 20.0261 16.9011 20.25 16.625 20.25C16.3266 20.25 16.0405 20.1315 15.8295 19.9205C15.6185 19.7095 15.5 19.4234 15.5 19.125V16C15.5 15.9668 15.4868 15.9351 15.4634 15.9116C15.4399 15.8882 15.4082 15.875 15.375 15.875C15.0989 15.875 14.875 15.6511 14.875 15.375Z" fill="#222222"/>
<path d="M15.6875 13.1875C16.0327 13.1875 16.3125 12.9077 16.3125 12.5625C16.3125 12.2173 16.0327 11.9375 15.6875 11.9375C15.3423 11.9375 15.0625 12.2173 15.0625 12.5625C15.0625 12.9077 15.3423 13.1875 15.6875 13.1875Z" fill="#222222"/>
<path fill-rule="evenodd" clip-rule="evenodd" d="M16 9C12.134 9 9 12.134 9 16C9 19.866 12.134 23 16 23C19.866 23 23 19.866 23 16C23 12.134 19.866 9 16 9ZM8 16C8 11.5817 11.5817 8 16 8C20.4183 8 24 11.5817 24 16C24 20.4183 20.4183 24 16 24C11.5817 24 8 20.4183 8 16Z" fill="#222222"/>
</svg>
