<svg width="25" height="25" viewBox="0 0 25 25" fill="none" xmlns="http://www.w3.org/2000/svg">
<path d="M24 12.5C24 6.14873 18.8513 1 12.5 1C6.14873 1 1 6.14873 1 12.5C1 18.8513 6.14873 24 12.5 24C18.8513 24 24 18.8513 24 12.5ZM14.3506 5.70703C15.5888 6.08304 16.6953 6.80465 17.5391 7.78809C18.4102 8.80351 18.9629 10.0532 19.1279 11.3809C19.293 12.7086 19.0639 14.0561 18.4678 15.2539C17.8717 16.4517 16.935 17.4472 15.7764 18.1162L15.7734 18.1172C15.0858 18.5084 14.4339 18.8409 13.7139 19.1846L15.1523 19.5703C15.4191 19.6418 15.5773 19.9169 15.5059 20.1836C15.4342 20.45 15.1601 20.6084 14.8936 20.5371L12.124 19.7949C11.8575 19.7234 11.6993 19.4492 11.7705 19.1826L12.5127 16.4131C12.5842 16.1464 12.8583 15.9881 13.125 16.0596C13.3917 16.131 13.55 16.4051 13.4785 16.6719L13.0107 18.4131C13.8274 18.0301 14.5319 17.6733 15.2793 17.248C16.2665 16.6773 17.0642 15.8285 17.5723 14.8076C18.0807 13.7858 18.2765 12.6365 18.1357 11.5039C17.9949 10.3714 17.5234 9.30563 16.7803 8.43945C16.0605 7.60047 15.1168 6.98488 14.0605 6.66406C13.7963 6.58383 13.6473 6.30427 13.7275 6.04004C13.8078 5.776 14.0865 5.62699 14.3506 5.70703ZM6.27051 13.7871C6.54315 13.7446 6.79901 13.9305 6.8418 14.2031C6.89905 14.5691 6.99126 14.9295 7.11719 15.2783C7.21072 15.5379 7.07593 15.8242 6.81641 15.918C6.55677 16.0117 6.26966 15.8777 6.17578 15.6182C6.02821 15.2094 5.92063 14.7872 5.85352 14.3584C5.81084 14.0856 5.99768 13.8298 6.27051 13.7871ZM6.25977 9.22461C6.38129 8.97665 6.68172 8.87457 6.92969 8.99609C7.17729 9.11777 7.27965 9.41724 7.1582 9.66504C6.99522 9.99762 6.86447 10.3452 6.76758 10.7031C6.69543 10.9696 6.42079 11.1267 6.1543 11.0547C5.88775 10.9825 5.7296 10.708 5.80176 10.4414C5.91534 10.0219 6.06873 9.61441 6.25977 9.22461ZM10.3018 5.73633C10.5648 5.65232 10.8467 5.79749 10.9307 6.06055C11.0143 6.32336 10.8691 6.60441 10.6064 6.68848C10.2411 6.80516 9.88986 6.95744 9.55762 7.1416C9.3161 7.27548 9.01181 7.18781 8.87793 6.94629C8.7441 6.70481 8.83083 6.4005 9.07227 6.2666C9.4617 6.05072 9.87353 5.87311 10.3018 5.73633ZM25 12.5C25 19.4036 19.4036 25 12.5 25C5.59644 25 0 19.4036 0 12.5C0 5.59644 5.59644 0 12.5 0C19.4036 0 25 5.59644 25 12.5Z" fill="#222222"/>
</svg>
