<svg width="10" height="12" viewBox="0 0 10 12" fill="none" xmlns="http://www.w3.org/2000/svg">
<path fill-rule="evenodd" clip-rule="evenodd" d="M0.146447 0.146447C0.341709 -0.0488155 0.658291 -0.0488155 0.853553 0.146447L6.35355 5.64645C6.54882 5.84171 6.54882 6.15829 6.35355 6.35355L0.853553 11.8536C0.658291 12.0488 0.341709 12.0488 0.146447 11.8536C-0.0488155 11.6583 -0.0488155 11.3417 0.146447 11.1464L5.29289 6L0.146447 0.853553C-0.0488155 0.658291 -0.0488155 0.341709 0.146447 0.146447Z" fill="#222222"/>
<path fill-rule="evenodd" clip-rule="evenodd" d="M8.75 7.45058e-09C9.02614 7.45058e-09 9.25 0.223858 9.25 0.5V11.5C9.25 11.7761 9.02614 12 8.75 12C8.47386 12 8.25 11.7761 8.25 11.5V0.5C8.25 0.223858 8.47386 7.45058e-09 8.75 7.45058e-09Z" fill="#222222"/>
</svg>
