<svg width="32" height="32" viewBox="0 0 32 32" fill="none" xmlns="http://www.w3.org/2000/svg">
<path fill-rule="evenodd" clip-rule="evenodd" d="M14.75 9C11.5744 9 9 11.5744 9 14.75C9 17.9256 11.5744 20.5 14.75 20.5C17.9256 20.5 20.5 17.9256 20.5 14.75C20.5 11.5744 17.9256 9 14.75 9ZM8 14.75C8 11.0221 11.0221 8 14.75 8C18.4779 8 21.5 11.0221 21.5 14.75C21.5 18.4779 18.4779 21.5 14.75 21.5C11.0221 21.5 8 18.4779 8 14.75Z" fill="#222222"/>
<path fill-rule="evenodd" clip-rule="evenodd" d="M18.816 18.816C19.0112 18.6207 19.3278 18.6207 19.5231 18.816L23.8536 23.1464C24.0488 23.3417 24.0488 23.6583 23.8536 23.8536C23.6583 24.0488 23.3417 24.0488 23.1464 23.8536L18.816 19.5231C18.6207 19.3278 18.6207 19.0112 18.816 18.816Z" fill="#222222"/>
</svg>
