<svg width="32" height="32" viewBox="0 0 32 32" fill="none" xmlns="http://www.w3.org/2000/svg">
<path d="M19.9722 17.1647C19.9447 17.1159 19.8981 17.0743 19.8384 17.045C19.7786 17.0157 19.7083 17 19.6363 17H12.3639C12.2919 17 12.2216 17.0156 12.1617 17.0449C12.1019 17.0742 12.0552 17.1158 12.0277 17.1646C12.0002 17.2133 11.9929 17.267 12.007 17.3187C12.0211 17.3705 12.0557 17.418 12.1066 17.4553L15.7429 20.9218C15.7766 20.9466 15.8167 20.9663 15.8609 20.9797C15.905 20.9931 15.9523 21 16.0001 21C16.0479 21 16.0952 20.9931 16.1394 20.9797C16.1835 20.9663 16.2236 20.9466 16.2574 20.9218L19.8936 17.4553C19.9444 17.418 19.9791 17.3705 19.993 17.3187C20.007 17.267 19.9998 17.2134 19.9722 17.1647Z" fill="#D9D9D9"/>
<path d="M12.0278 14.8353C12.0553 14.8841 12.1019 14.9257 12.1616 14.955C12.2214 14.9843 12.2917 15 12.3637 15L19.6361 15C19.7081 15 19.7784 14.9844 19.8383 14.9551C19.8981 14.9258 19.9448 14.8842 19.9723 14.8354C19.9999 14.7867 20.0071 14.733 19.993 14.6813C19.9789 14.6295 19.9443 14.582 19.8934 14.5447L16.2571 11.0782C16.2234 11.0534 16.1833 11.0337 16.1391 11.0203C16.095 11.0069 16.0477 11 15.9999 11C15.9521 11 15.9048 11.0069 15.8606 11.0203C15.8165 11.0337 15.7764 11.0534 15.7426 11.0782L12.1064 14.5447C12.0556 14.582 12.0209 14.6295 12.007 14.6813C11.993 14.733 12.0002 14.7866 12.0278 14.8353Z" fill="#4D4D4D"/>
</svg>
