<svg width="32" height="32" viewBox="0 0 32 32" fill="none" xmlns="http://www.w3.org/2000/svg">
<path d="M16 27.998C22.6274 27.998 28 22.6255 28 15.998C28 9.37063 22.6274 3.99805 16 3.99805C9.37258 3.99805 4 9.37063 4 15.998C4 22.6255 9.37258 27.998 16 27.998Z" fill="#45821C"/>
<path fill-rule="evenodd" clip-rule="evenodd" d="M21.7071 12.2909C22.0976 12.6815 22.0976 13.3146 21.7071 13.7052L14.7071 20.7052C14.3166 21.0957 13.6834 21.0957 13.2929 20.7052L10.2929 17.7052C9.90237 17.3146 9.90237 16.6815 10.2929 16.2909C10.6834 15.9004 11.3166 15.9004 11.7071 16.2909L14 18.5838L20.2929 12.2909C20.6834 11.9004 21.3166 11.9004 21.7071 12.2909Z" fill="#FBFCFC"/>
</svg>
