<svg width="32" height="32" viewBox="0 0 32 32" fill="none" xmlns="http://www.w3.org/2000/svg">
<path fill-rule="evenodd" clip-rule="evenodd" d="M17.8761 4.8207C16.8621 3.05716 14.2645 3.05716 13.2504 4.8207L1.84262 24.6298L1.84206 24.6308C0.840811 26.3785 2.14699 28.498 4.15547 28.498H26.9711C28.9796 28.498 30.2858 26.3785 29.2845 24.6308L17.8761 4.8207Z" fill="#F05F20"/>
<path fill-rule="evenodd" clip-rule="evenodd" d="M15.5633 12.3887C16.1156 12.3887 16.5633 12.8364 16.5633 13.3887V18.6061C16.5633 19.1583 16.1156 19.6061 15.5633 19.6061C15.0111 19.6061 14.5633 19.1583 14.5633 18.6061V13.3887C14.5633 12.8364 15.0111 12.3887 15.5633 12.3887Z" fill="#FBFCFC"/>
<path d="M15.5197 24.2583C16.072 24.2583 16.5197 23.8106 16.5197 23.2583C16.5197 22.706 16.072 22.2583 15.5197 22.2583C14.9674 22.2583 14.5197 22.706 14.5197 23.2583C14.5197 23.8106 14.9674 24.2583 15.5197 24.2583Z" fill="#FBFCFC"/>
</svg>
